<svg width="17" height="17" viewBox="0 0 17 17" fill="none" xmlns="http://www.w3.org/2000/svg">
<path d="M16.6662 8.5201C16.6662 7.83492 16.6095 7.33492 16.4867 6.81641H8.50293V9.90897H13.1892C13.0948 10.6775 12.5846 11.8349 11.4508 12.6127L11.4349 12.7162L13.9592 14.6326L14.1341 14.6498C15.7402 13.196 16.6662 11.0571 16.6662 8.5201Z" fill="#4285F4"/>
<path d="M8.50263 16.6657C10.7985 16.6657 12.7259 15.9249 14.1338 14.6472L11.4504 12.6101C10.7324 13.1008 9.76866 13.4434 8.50263 13.4434C6.25397 13.4434 4.34545 11.9897 3.66511 9.98047L3.56539 9.98877L0.940576 11.9795L0.90625 12.0731C2.30457 14.7953 5.17683 16.6657 8.50263 16.6657Z" fill="#34A853"/>
<path d="M3.66588 9.98026C3.48637 9.46174 3.38247 8.90615 3.38247 8.3321C3.38247 7.75799 3.48637 7.20245 3.65643 6.68394L3.65168 6.57351L0.993964 4.55078L0.907009 4.59132C0.330692 5.72096 0 6.98951 0 8.3321C0 9.67469 0.330692 10.9432 0.907009 12.0728L3.66588 9.98026Z" fill="#FBBC05"/>
<path d="M8.50267 3.22221C10.0994 3.22221 11.1765 3.89813 11.7906 4.46299L14.1905 2.16667C12.7166 0.824079 10.7986 0 8.50267 0C5.17686 0 2.30458 1.87036 0.90625 4.59257L3.65568 6.68519C4.34547 4.67593 6.254 3.22221 8.50267 3.22221Z" fill="#EB4335"/>
</svg>
